<svg xmlns="http://www.w3.org/2000/svg" xmlns:xlink="http://www.w3.org/1999/xlink" width="27" height="27" viewBox="0 0 27 27"><defs><style>.a,.c{fill:rgba(0,0,0,0.4);}.a{stroke:#707070;}.b{clip-path:url(#a);}</style><clipPath id="a"><rect class="a" width="27" height="27" transform="translate(1308 3140)"/></clipPath></defs><g class="b" transform="translate(-1308 -3140)"><g transform="translate(1308 3145.625)"><g transform="translate(0 0)"><path class="c" d="M26.9,14.847c-.213-.309-5.322-7.556-13.4-7.556C6.569,7.291.392,14.5.132,14.8a.565.565,0,0,0,0,.727c.26.307,6.436,7.512,13.367,7.512s13.108-7.2,13.367-7.512A.563.563,0,0,0,26.9,14.847Zm-13.4,7.07c-5.556,0-10.84-5.3-12.182-6.75,1.34-1.452,6.617-6.75,12.182-6.75,6.5,0,11.09,5.291,12.211,6.72C24.417,16.541,19.1,21.917,13.5,21.917Z" transform="translate(0 -7.291)"/></g><g transform="translate(9 3.375)"><path class="c" d="M16.167,11.667a4.5,4.5,0,1,0,4.5,4.5A4.5,4.5,0,0,0,16.167,11.667Zm0,7.875a3.375,3.375,0,1,1,3.375-3.375A3.379,3.379,0,0,1,16.167,19.542Z" transform="translate(-11.667 -11.667)"/></g></g></g></svg>