<svg xmlns="http://www.w3.org/2000/svg" xmlns:xlink="http://www.w3.org/1999/xlink" width="18" height="18" viewBox="0 0 18 18"><defs><style>.a,.c{fill:rgba(0,0,0,0.5);}.a{stroke:#707070;}.b{clip-path:url(#a);}</style><clipPath id="a"><rect class="a" width="18" height="18" transform="translate(1185 800)"/></clipPath></defs><g class="b" transform="translate(-1185 -800)"><path class="c" d="M16.393,7.393H10.929a.321.321,0,0,1-.321-.321V1.607a1.607,1.607,0,1,0-3.214,0V7.071a.321.321,0,0,1-.321.321H1.607a1.607,1.607,0,1,0,0,3.214H7.071a.321.321,0,0,1,.321.321v5.464a1.607,1.607,0,1,0,3.214,0V10.929a.321.321,0,0,1,.321-.321h5.464a1.607,1.607,0,1,0,0-3.214Zm0,0" transform="translate(1185 800)"/></g></svg>