<svg xmlns="http://www.w3.org/2000/svg" xmlns:xlink="http://www.w3.org/1999/xlink" width="18" height="18" viewBox="0 0 18 18"><defs><style>.a,.c{fill:rgba(0,0,0,0.5);}.a{stroke:#707070;}.b{clip-path:url(#a);}</style><clipPath id="a"><rect class="a" width="18" height="18" transform="translate(297 51)"/></clipPath></defs><g class="b" transform="translate(-297 -51)"><g transform="translate(297 51)"><g transform="translate(0 0)"><path class="c" d="M2.257,18A2.253,2.253,0,0,1,0,15.756V4.533A2.253,2.253,0,0,1,2.257,2.288H11.62L10.1,3.786H2.257a.751.751,0,0,0-.752.748V15.756a.751.751,0,0,0,.752.748H13.541a.751.751,0,0,0,.751-.748V7.738l1.5-1.487v9.505A2.253,2.253,0,0,1,13.541,18ZM6.92,9.449,15.127,1.27l1.6,1.583L8.52,11.032,6.34,11.6ZM15.662.744s.235-.235.52-.525h0a.753.753,0,0,1,1.057,0l.543.538a.737.737,0,0,1,0,1.046h0c-.29.29-.52.527-.52.527Z" transform="translate(0 -0.002)"/><path class="c" d="M2.257,18A2.253,2.253,0,0,1,0,15.756V4.533A2.253,2.253,0,0,1,2.257,2.288H11.62L10.1,3.786H2.257a.751.751,0,0,0-.752.748V15.756a.751.751,0,0,0,.752.748H13.541a.751.751,0,0,0,.751-.748V7.738l1.5-1.487v9.505A2.253,2.253,0,0,1,13.541,18ZM6.92,9.449,15.127,1.27l1.6,1.583L8.52,11.032,6.34,11.6ZM15.662.744s.235-.235.52-.525h0a.753.753,0,0,1,1.057,0l.543.538a.737.737,0,0,1,0,1.046h0c-.29.29-.52.527-.52.527Z" transform="translate(0 -0.002)"/></g></g></g></svg>