<svg xmlns="http://www.w3.org/2000/svg" xmlns:xlink="http://www.w3.org/1999/xlink" width="18" height="18" viewBox="0 0 18 18"><defs><style>.a{fill:#fff;}.b{clip-path:url(#a);}</style><clipPath id="a"><rect class="a" width="18" height="18" transform="translate(-0.238 -0.451)"/></clipPath></defs><g class="b" transform="translate(0.238 0.451)"><g transform="translate(0 1.464)"><g transform="translate(0 0)"><path class="a" d="M7.263,4.875A2.929,2.929,0,1,0,10.192,7.8,2.932,2.932,0,0,0,7.263,4.875Z" transform="translate(1.525 0.251)"/><path class="a" d="M15.43,4.013h-.792a.2.2,0,0,1-.19-.148l-.38-1.525a1.659,1.659,0,0,0-1.61-1.257H5.118A1.66,1.66,0,0,0,3.507,2.341L3.128,3.864a.2.2,0,0,1-.19.149H2.145A2.146,2.146,0,0,0,0,6.157v7.428a2.146,2.146,0,0,0,2.145,2.144H15.43a2.146,2.146,0,0,0,2.145-2.144V6.157A2.146,2.146,0,0,0,15.43,4.013Zm-6.643,9.52a4.394,4.394,0,1,1,4.394-4.394A4.4,4.4,0,0,1,8.788,13.532Zm5.858-5.858a.732.732,0,1,1,.732-.732A.733.733,0,0,1,14.646,7.674Z" transform="translate(0 -1.083)"/></g></g></g></svg>