<svg xmlns="http://www.w3.org/2000/svg" xmlns:xlink="http://www.w3.org/1999/xlink" width="24" height="24" viewBox="0 0 24 24"><defs><style>.a{clip-path:url(#a);}</style><clipPath id="a"><rect width="24" height="24"/></clipPath></defs><g class="a"><g transform="translate(0 1.453)"><path d="M7.733,14.063H20.484a.7.7,0,0,0,.676-.51l2.813-9.844a.7.7,0,0,0-.676-.9H6.111L5.608.551A.7.7,0,0,0,4.922,0H.7a.7.7,0,0,0,0,1.406H4.358L6.9,12.83a2.109,2.109,0,0,0,.838,4.045h12.75a.7.7,0,0,0,0-1.406H7.734a.7.7,0,0,1,0-1.406ZM22.365,4.219l-2.411,8.438H8.3L6.423,4.219Zm0,0" transform="translate(0 0)"/><path d="M11.719,30.234a2.109,2.109,0,1,0,2.109-2.109A2.112,2.112,0,0,0,11.719,30.234Zm2.109-.7a.7.7,0,1,1-.7.7A.7.7,0,0,1,13.828,29.531Zm0,0" transform="translate(-4.687 -11.25)"/><path d="M28.281,30.234a2.109,2.109,0,1,0,2.109-2.109A2.112,2.112,0,0,0,28.281,30.234Zm2.109-.7a.7.7,0,1,1-.7.7A.7.7,0,0,1,30.391,29.531Zm0,0" transform="translate(-11.313 -11.25)"/></g></g></svg>