<svg xmlns="http://www.w3.org/2000/svg" xmlns:xlink="http://www.w3.org/1999/xlink" width="24" height="24" viewBox="0 0 24 24"><defs><style>.a{fill:#fff;}.b{clip-path:url(#a);}</style><clipPath id="a"><rect class="a" width="24" height="24" transform="translate(-581 10)"/></clipPath></defs><g class="b" transform="translate(581 -10)"><g transform="translate(-581 10)"><path d="M23.063,11.063H.938a.938.938,0,0,0,0,1.875H23.063a.938.938,0,0,0,0-1.875Z"/><path d="M23.063,3.563H.938a.938.938,0,0,0,0,1.875H23.063a.938.938,0,0,0,0-1.875Z"/><path d="M23.063,18.563H.938a.938.938,0,0,0,0,1.875H23.063a.938.938,0,0,0,0-1.875Z"/></g></g></svg>