<svg xmlns="http://www.w3.org/2000/svg" xmlns:xlink="http://www.w3.org/1999/xlink" width="20" height="20" viewBox="0 0 20 20"><defs><style>.a{fill:#0a4b9b;}.b{clip-path:url(#a);}</style><clipPath id="a"><rect class="a" width="20" height="20" transform="translate(625 53)"/></clipPath></defs><g class="b" transform="translate(-625 -53)"><g transform="translate(625 53)"><path class="a" d="M18.809,8.216,2.672,1.521A1.931,1.931,0,0,0,.061,3.782L1.647,10,.061,16.218a1.931,1.931,0,0,0,2.612,2.261l16.136-6.7a1.931,1.931,0,0,0,0-3.568ZM18.36,10.7,2.223,17.4A.759.759,0,0,1,1.2,16.508l1.51-5.922H8.529a.586.586,0,1,0,0-1.172H2.707L1.2,3.492A.759.759,0,0,1,2.223,2.6L18.36,9.3a.759.759,0,0,1,0,1.4Z"/></g></g></svg>