<svg xmlns="http://www.w3.org/2000/svg" xmlns:xlink="http://www.w3.org/1999/xlink" width="12" height="12" viewBox="0 0 12 12"><defs><style>.a,.c{fill:#fff;}.a{stroke:#707070;}.b{clip-path:url(#a);}</style><clipPath id="a"><rect class="a" width="12" height="12"/></clipPath></defs><g class="b"><g transform="translate(0 2.456)"><path class="c" d="M11.808,3.048l-.393-.4a.658.658,0,0,0-.928,0L6,7.137,1.514,2.648a.658.658,0,0,0-.928,0l-.393.393a.657.657,0,0,0,0,.928L5.537,9.333A.671.671,0,0,0,6,9.544H6a.671.671,0,0,0,.464-.211l5.34-5.35A.663.663,0,0,0,12,3.515.656.656,0,0,0,11.808,3.048Z" transform="translate(0 -2.456)"/></g></g></svg>