<svg xmlns="http://www.w3.org/2000/svg" xmlns:xlink="http://www.w3.org/1999/xlink" width="15" height="15" viewBox="0 0 15 15"><defs><style>.a{fill:rgba(112,112,112,0.5);}.b{clip-path:url(#a);}</style><clipPath id="a"><rect class="a" width="15" height="15" transform="translate(3603 -161)"/></clipPath></defs><g class="b" transform="translate(-3603 161)"><g transform="translate(3603.125 -161)"><g transform="translate(0)"><path class="a" d="M3.978,0H.51A.419.419,0,0,0,.092.418V3.886A.419.419,0,0,0,.51,4.3H3.978A.419.419,0,0,0,4.4,3.886V.418A.419.419,0,0,0,3.978,0ZM3.6,3.51H.928V.836H3.6Z" transform="translate(-0.092)"/></g><g transform="translate(5.223)"><path class="a" d="M7.808,0H4.34a.419.419,0,0,0-.418.418V3.886A.419.419,0,0,0,4.34,4.3H7.808a.419.419,0,0,0,.418-.418V.418A.419.419,0,0,0,7.808,0ZM7.432,3.51H4.758V.836H7.432Z" transform="translate(-3.922)"/></g><g transform="translate(0 5.265)"><path class="a" d="M3.978,3.861H.51a.419.419,0,0,0-.418.418V7.747a.419.419,0,0,0,.418.418H3.978A.419.419,0,0,0,4.4,7.747V4.279A.419.419,0,0,0,3.978,3.861ZM3.6,7.329H.928V4.7H3.6Z" transform="translate(-0.092 -3.861)"/></g><g transform="translate(5.223 5.265)"><path class="a" d="M7.808,3.861H4.34a.419.419,0,0,0-.418.418V7.747a.419.419,0,0,0,.418.418H7.808a.419.419,0,0,0,.418-.418V4.279A.419.419,0,0,0,7.808,3.861ZM7.432,7.329H4.758V4.7H7.432Z" transform="translate(-3.922 -3.861)"/></g><g transform="translate(10.446)"><path class="a" d="M11.638,0H8.17a.419.419,0,0,0-.418.418V3.886A.419.419,0,0,0,8.17,4.3h3.468a.419.419,0,0,0,.418-.418V.418A.419.419,0,0,0,11.638,0Zm-.376,3.51H8.588V.836h2.674Z" transform="translate(-7.752)"/></g><g transform="translate(10.446 5.265)"><path class="a" d="M11.638,3.861H8.17a.419.419,0,0,0-.418.418V7.747a.419.419,0,0,0,.418.418h3.468a.419.419,0,0,0,.418-.418V4.279A.419.419,0,0,0,11.638,3.861Zm-.376,3.468H8.588V4.7h2.674Z" transform="translate(-7.752 -3.861)"/></g><g transform="translate(0 10.696)"><path class="a" d="M3.978,7.844H.51a.419.419,0,0,0-.418.418V11.73a.419.419,0,0,0,.418.418H3.978A.419.419,0,0,0,4.4,11.73V8.262A.419.419,0,0,0,3.978,7.844ZM3.6,11.354H.928V8.68H3.6Z" transform="translate(-0.092 -7.844)"/></g><g transform="translate(5.223 10.696)"><path class="a" d="M7.808,7.844H4.34a.419.419,0,0,0-.418.418V11.73a.419.419,0,0,0,.418.418H7.808a.419.419,0,0,0,.418-.418V8.262A.419.419,0,0,0,7.808,7.844Zm-.376,3.51H4.758V8.68H7.432Z" transform="translate(-3.922 -7.844)"/></g><g transform="translate(10.446 10.696)"><path class="a" d="M11.638,7.844H8.17a.419.419,0,0,0-.418.418V11.73a.419.419,0,0,0,.418.418h3.468a.419.419,0,0,0,.418-.418V8.262A.419.419,0,0,0,11.638,7.844Zm-.376,3.51H8.588V8.68h2.674Z" transform="translate(-7.752 -7.844)"/></g></g></g></svg>