<svg xmlns="http://www.w3.org/2000/svg" xmlns:xlink="http://www.w3.org/1999/xlink" width="20" height="20" viewBox="0 0 20 20"><defs><style>.a{fill:#0a3264;}.b{clip-path:url(#a);}</style><clipPath id="a"><rect class="a" width="20" height="20" transform="translate(248 1921)"/></clipPath></defs><g class="b" transform="translate(-248 -1921)"><g transform="translate(248 1921)"><path class="a" d="M14.586,0H5.414A5.42,5.42,0,0,0,0,5.414v9.172A5.42,5.42,0,0,0,5.414,20h9.172A5.42,5.42,0,0,0,20,14.586V5.414A5.42,5.42,0,0,0,14.586,0Zm4.241,14.586a4.246,4.246,0,0,1-4.241,4.241H5.414a4.246,4.246,0,0,1-4.241-4.241V5.414A4.246,4.246,0,0,1,5.414,1.173h9.172a4.246,4.246,0,0,1,4.241,4.241Zm0,0"/><path class="a" d="M10,4.531A5.469,5.469,0,1,0,15.469,10,5.475,5.475,0,0,0,10,4.531ZM10,14.3A4.3,4.3,0,1,1,14.3,10,4.3,4.3,0,0,1,10,14.3Zm0,0"/><path class="a" d="M15.6,2.589a1.616,1.616,0,1,0,1.616,1.616A1.618,1.618,0,0,0,15.6,2.589Zm0,2.059a.443.443,0,1,1,.444-.443A.444.444,0,0,1,15.6,4.649Zm0,0"/></g></g></svg>