<svg xmlns="http://www.w3.org/2000/svg" xmlns:xlink="http://www.w3.org/1999/xlink" width="15" height="15" viewBox="0 0 15 15"><defs><style>.a{fill:#fff;}.b{clip-path:url(#a);}</style><clipPath id="a"><rect class="a" width="15" height="15" transform="translate(3574 -161)"/></clipPath></defs><g class="b" transform="translate(-3574 161)"><g transform="translate(3574 -159.466)"><path class="a" d="M0,3.319H3.319V0H0ZM.879.879H2.44V2.44H.879Zm0,0"/><path class="a" d="M3.208,0V3.319H13.834V0Zm9.747,2.44H4.087V.879h8.868Zm0,0" transform="translate(1.166)"/><path class="a" d="M0,6.478H3.319V3.158H0Zm.879-2.44H2.44V5.6H.879Zm0,0" transform="translate(0 1.148)"/><path class="a" d="M3.208,6.478H13.834V3.158H3.208Zm.879-2.44h8.868V5.6H4.087Zm0,0" transform="translate(1.166 1.148)"/><path class="a" d="M0,9.636H3.319V6.317H0ZM.879,7.2H2.44V8.757H.879Zm0,0" transform="translate(0 2.297)"/><path class="a" d="M3.208,9.636H13.834V6.317H3.208ZM4.087,7.2h8.868V8.757H4.087Zm0,0" transform="translate(1.166 2.297)"/></g></g></svg>