<svg xmlns="http://www.w3.org/2000/svg" xmlns:xlink="http://www.w3.org/1999/xlink" width="19" height="19" viewBox="0 0 19 19"><defs><style>.a{fill:#fff;}.b{clip-path:url(#a);}</style><clipPath id="a"><rect class="a" width="19" height="19" transform="translate(5073 -179)"/></clipPath></defs><g class="b" transform="translate(-5073 179)"><g transform="translate(5073 -179)"><path d="M9.5,0A9.5,9.5,0,1,0,19,9.5,9.511,9.511,0,0,0,9.5,0Zm0,17.528A8.028,8.028,0,1,1,17.528,9.5,8.037,8.037,0,0,1,9.5,17.528Z"/><g transform="translate(5.085 8.698)"><path d="M13.179,8.7H5.821a.736.736,0,0,0,0,1.472h7.359a.736.736,0,0,0,0-1.472Z" transform="translate(-5.085 -8.698)"/></g></g></g></svg>