<svg xmlns="http://www.w3.org/2000/svg" xmlns:xlink="http://www.w3.org/1999/xlink" width="19" height="19" viewBox="0 0 19 19"><defs><style>.a{fill:#fff;}.b{clip-path:url(#a);}</style><clipPath id="a"><rect class="a" width="19" height="19" transform="translate(4958 -179)"/></clipPath></defs><g class="b" transform="translate(-4958 179)"><g transform="translate(4958 -179)"><path d="M9.5,0A9.5,9.5,0,1,0,19,9.5,9.51,9.51,0,0,0,9.5,0Zm0,17.528A8.028,8.028,0,1,1,17.528,9.5,8.038,8.038,0,0,1,9.5,17.528Z"/><g transform="translate(5.085 5.019)"><path d="M13.982,9.49H11.039V6.547a.736.736,0,1,0-1.472,0V9.49H6.624a.736.736,0,1,0,0,1.472H9.567v2.943a.736.736,0,0,0,1.472,0V10.962h2.943a.736.736,0,0,0,0-1.472Z" transform="translate(-5.888 -5.811)"/></g></g></g></svg>