<svg xmlns="http://www.w3.org/2000/svg" xmlns:xlink="http://www.w3.org/1999/xlink" width="20" height="20" viewBox="0 0 20 20"><defs><style>.a{fill:#0a3264;}.b{clip-path:url(#a);}</style><clipPath id="a"><rect class="a" width="20" height="20" transform="translate(206 1921)"/></clipPath></defs><g class="b" transform="translate(-206 -1921)"><path class="a" d="M7.61,16.512c-3.338,0-5.976-.583-7.238-1.6l-.025-.02L.325,14.87a1.027,1.027,0,0,1-.269-1.08l.012-.032a1.045,1.045,0,0,1,.954-.656A8.618,8.618,0,0,0,3.3,12.788a4.325,4.325,0,0,1-2.28-2.634.934.934,0,0,1,.326-1.089.953.953,0,0,1,.284-.145A6.308,6.308,0,0,1,.337,6.6L.329,6.576.324,6.55a.972.972,0,0,1,.45-1.043.968.968,0,0,1,.461-.13A4.877,4.877,0,0,1,.867,4.252a4.7,4.7,0,0,1,.5-3.133L1.492.871A.692.692,0,0,1,2.6.691l.226.226A10.664,10.664,0,0,0,8.975,4.285,4.9,4.9,0,0,1,10.3,1.46,4.64,4.64,0,0,1,13.609,0h.008a6.636,6.636,0,0,1,2.738.891C16.945.7,17.655.4,18.392.085a.93.93,0,0,1,1.041.183.914.914,0,0,1,.2,1q-.08.224-.182.439a.931.931,0,0,1,.271.187,1.006,1.006,0,0,1,.25.94l-.009.032A3.837,3.837,0,0,1,18.42,4.986C18.3,11.364,13.5,16.512,7.61,16.512ZM1.5,14.259a13.815,13.815,0,0,0,6.114,1.08A9.158,9.158,0,0,0,14.4,12.25a11.067,11.067,0,0,0,2.85-7.509V4.709a.691.691,0,0,1,.369-.611A2.49,2.49,0,0,0,18.7,2.905a.692.692,0,0,1-.666-1.089,3.807,3.807,0,0,0,.261-.414c-.636.267-1.24.507-1.765.666a.75.75,0,0,1-.577-.062,5.714,5.714,0,0,0-2.328-.833,3.647,3.647,0,0,0-3.508,3.7.692.692,0,0,1-.826.679A12.125,12.125,0,0,1,2.247,2a3.463,3.463,0,0,0-.228,2.025A4.28,4.28,0,0,0,3.034,6a.692.692,0,0,1-.7,1.124,3.168,3.168,0,0,1-.645-.248,5.843,5.843,0,0,0,2,2.323.692.692,0,0,1-.442,1.26,3.11,3.11,0,0,1-.918-.2,3.154,3.154,0,0,0,2.517,1.783.692.692,0,0,1,.206,1.293,8.311,8.311,0,0,1-3.56.923Zm0,0" transform="translate(206 1922.744)"/></g></svg>