<svg xmlns="http://www.w3.org/2000/svg" xmlns:xlink="http://www.w3.org/1999/xlink" width="20" height="20" viewBox="0 0 20 20"><defs><style>.a{fill:#0a3264;}.b{clip-path:url(#a);}</style><clipPath id="a"><rect class="a" width="20" height="20" transform="translate(290 1921)"/></clipPath></defs><g class="b" transform="translate(-290 -1921)"><g transform="translate(290 1923.426)"><path class="a" d="M13.078,6.679,8.66,4.262a.812.812,0,0,0-1.2.712V9.767a.81.81,0,0,0,1.2.715l4.419-2.376a.812.812,0,0,0,.005-1.427ZM8.631,9.164V5.582l3.3,1.807Zm0,0"/><path class="a" d="M19.853,3.575V3.566a4.574,4.574,0,0,0-.882-2.321A3.254,3.254,0,0,0,16.815.234l-.1-.012-.035,0C14.036.027,10.043,0,10,0H10c-.04,0-4.033.026-6.7.219l-.035,0L3.167.234A3.172,3.172,0,0,0,1.024,1.276,4.793,4.793,0,0,0,.149,3.555l0,.02C.141,3.642,0,5.237,0,6.838v1.5c0,1.6.141,3.2.147,3.263v.01A4.529,4.529,0,0,0,1.026,13.9a3.321,3.321,0,0,0,2.228,1c.081.009.151.017.2.026l.046.006c1.527.145,6.313.217,6.516.22h.012c.04,0,4.033-.026,6.677-.219l.035,0,.112-.013A3.1,3.1,0,0,0,18.976,13.9a4.793,4.793,0,0,0,.874-2.279l0-.02c.006-.067.147-1.662.147-3.263v-1.5c0-1.6-.141-3.2-.147-3.263ZM18.828,8.334c0,1.482-.129,3.008-.142,3.148a3.721,3.721,0,0,1-.575,1.624,1.927,1.927,0,0,1-1.383.642l-.125.014c-2.557.185-6.4.213-6.577.214-.2,0-4.915-.075-6.4-.213-.076-.012-.158-.022-.244-.032a2.192,2.192,0,0,1-1.5-.626l-.011-.012a3.376,3.376,0,0,1-.564-1.607c-.009-.106-.142-1.65-.142-3.152v-1.5c0-1.48.129-3,.142-3.147a3.645,3.645,0,0,1,.575-1.624A2.022,2.022,0,0,1,3.3,1.4l.1-.011C5.991,1.2,9.861,1.173,10,1.172s4.007.029,6.579.215l.1.012a2.1,2.1,0,0,1,1.435.65l0,.005a3.43,3.43,0,0,1,.564,1.631c.009.1.142,1.647.142,3.153Zm0,0"/></g></g></svg>